<?xml version="1.0" standalone="no"?>
<!DOCTYPE svg PUBLIC "-//W3C//DTD SVG 20010904//EN"
 "http://www.w3.org/TR/2001/REC-SVG-20010904/DTD/svg10.dtd">
<svg version="1.0" xmlns="http://www.w3.org/2000/svg"
 width="920.000000pt" height="539.000000pt" viewBox="0 0 920.000000 539.000000"
 preserveAspectRatio="xMidYMid meet">

<g transform="translate(0.000000,539.000000) scale(0.100000,-0.100000)"
fill="#000000" stroke="none">
<path d="M3299 4876 c-83 -29 -147 -86 -191 -169 -23 -42 -23 -44 -26 -567
l-3 -525 151 -150 150 -150 0 608 0 609 29 29 29 29 1021 0 1020 0 3 -287 c3
-278 4 -289 26 -331 33 -63 84 -114 144 -148 l53 -29 288 -3 287 -3 0 -1499 0
-1499 -24 -28 -24 -28 -1397 -3 -1396 -2 -30 29 -29 29 0 459 0 458 -150 150
-150 150 2 -675 3 -675 23 -43 c33 -63 84 -114 144 -148 l53 -29 1525 0 1525
0 53 29 c60 34 111 85 144 148 l23 43 3 1602 2 1602 -21 58 c-20 54 -48 84
-458 494 -409 409 -440 438 -494 458 -58 21 -62 21 -1165 21 -879 -1 -1114 -4
-1143 -14z"/>
<path d="M3884 4236 c-3 -7 -4 -38 -2 -67 l3 -54 545 0 545 0 0 65 0 65 -543
3 c-453 2 -543 0 -548 -12z"/>
<path d="M2030 4081 c-87 -28 -157 -89 -202 -173 -19 -35 -23 -59 -23 -128 0
-110 18 -145 141 -271 52 -52 94 -102 94 -109 0 -20 -111 -130 -130 -130 -9 0
-36 21 -60 46 -25 25 -58 52 -73 60 -78 41 -168 -55 -124 -133 14 -25 406
-405 617 -598 191 -175 415 -361 485 -404 44 -27 58 -31 69 -22 23 19 29 66
12 98 -8 15 -186 199 -395 408 -210 209 -381 387 -381 396 0 18 113 129 132
129 7 0 287 -275 623 -610 l610 -610 218 218 217 217 -787 787 c-562 560 -801
793 -833 809 -48 24 -164 35 -210 20z"/>
<path d="M3884 3916 c-3 -7 -4 -38 -2 -67 l3 -54 545 0 545 0 0 65 0 65 -543
3 c-453 2 -543 0 -548 -12z"/>
<path d="M3884 3116 c-3 -7 -4 -38 -2 -67 l3 -54 945 0 945 0 0 65 0 65 -943
3 c-792 2 -943 0 -948 -12z"/>
<path d="M3955 2740 l70 -70 875 2 875 3 0 65 0 65 -945 3 -945 2 70 -70z"/>
<path d="M4275 2420 l70 -70 715 2 715 3 0 65 0 65 -785 3 -785 2 70 -70z"/>
<path d="M3780 2104 l-215 -215 160 -157 c358 -350 677 -558 890 -579 53 -5
65 -10 102 -46 40 -38 44 -40 88 -34 83 12 172 73 226 157 18 28 38 50 45 50
7 0 24 -21 39 -46 83 -142 208 -205 270 -138 36 39 44 80 55 279 14 237 28
424 36 453 10 37 37 22 66 -38 44 -88 74 -232 94 -444 5 -54 11 -74 29 -92 30
-30 65 -30 93 -1 27 29 29 92 7 247 -47 333 -151 510 -299 510 -31 0 -45 -7
-72 -36 -55 -58 -77 -164 -89 -429 -13 -317 -17 -328 -79 -227 -106 174 -188
182 -273 26 -64 -115 -90 -138 -155 -139 l-53 0 -7 65 c-9 83 -30 146 -80 245
-94 188 -264 409 -497 648 -85 86 -157 157 -160 157 -3 0 -103 -97 -221 -216z"/>
</g>
</svg>
